<svg width="30" height="31" viewBox="0 0 30 31" fill="none" xmlns="http://www.w3.org/2000/svg">
<path d="M5.60219 6.76093C5.23109 6.76093 4.92949 7.06253 4.92949 7.43363V8.5004L5.75547 8.50071V7.58691H24.8711V8.50071L25.6971 8.5004V7.43363C25.6971 7.06253 25.3955 6.76093 25.0243 6.76093H5.60219Z" fill="#9C64B0"/>
<path fill-rule="evenodd" clip-rule="evenodd" d="M5.60219 7.01093C5.36916 7.01093 5.17949 7.2006 5.17949 7.43363V8.25049L5.50547 8.25062V7.33691H25.1211V8.25062L25.4471 8.25049V7.43363C25.4471 7.2006 25.2574 7.01093 25.0243 7.01093H5.60219ZM4.67949 7.43363C4.67949 6.92445 5.09301 6.51093 5.60219 6.51093H25.0243C25.5335 6.51093 25.9471 6.92445 25.9471 7.43363V8.75031L24.6211 8.7508V7.83691H6.00547V8.7508L4.67949 8.75031V7.43363Z" fill="#9C64B0"/>
<path d="M23.3724 30.6239H6.74405C5.16903 30.6239 3.88754 29.3424 3.88754 27.7674V9.74838C3.88754 9.06017 4.4473 8.49979 5.13614 8.49979H24.9803C25.6685 8.49979 26.2289 9.06017 26.2289 9.74838V27.7674C26.2289 29.3424 24.9474 30.6239 23.3724 30.6239ZM5.13614 9.26433C4.86929 9.26433 4.65209 9.48154 4.65209 9.74838V27.7674C4.65209 28.9204 5.5904 29.8594 6.74405 29.8594H23.3724C24.526 29.8594 25.4643 28.9211 25.4643 27.7674V9.74838C25.4643 9.48154 25.2471 9.26433 24.9803 9.26433H5.13614Z" fill="#9C64B0"/>
<path fill-rule="evenodd" clip-rule="evenodd" d="M5.13614 8.74979C4.58545 8.74979 4.13754 9.19816 4.13754 9.74838V27.7674C4.13754 29.2044 5.3071 30.3739 6.74405 30.3739H23.3724C24.8093 30.3739 25.9789 29.2044 25.9789 27.7674V9.74838C25.9789 9.19824 25.5304 8.74979 24.9803 8.74979H5.13614ZM3.63754 9.74838C3.63754 8.92218 4.30915 8.24979 5.13614 8.24979H24.9803C25.8066 8.24979 26.4789 8.92209 26.4789 9.74838V27.7674C26.4789 29.4805 25.0855 30.8739 23.3724 30.8739H6.74405C5.03096 30.8739 3.63754 29.4805 3.63754 27.7674V9.74838ZM4.40209 9.74838C4.40209 9.34346 4.73122 9.01433 5.13614 9.01433H24.9803C25.3852 9.01433 25.7143 9.34347 25.7143 9.74838V27.7674C25.7143 29.0591 24.6641 30.1094 23.3724 30.1094H6.74405C5.45228 30.1094 4.40209 29.0585 4.40209 27.7674V9.74838ZM5.13614 9.51433C5.00736 9.51433 4.90209 9.61961 4.90209 9.74838V27.7674C4.90209 28.7824 5.72852 29.6094 6.74405 29.6094H23.3724C24.3879 29.6094 25.2143 28.783 25.2143 27.7674V9.74838C25.2143 9.6196 25.1091 9.51433 24.9803 9.51433H5.13614Z" fill="#9C64B0"/>
<path d="M9.27908 8.89756H8.51453V3.72134C8.51453 2.10661 9.82829 0.792847 11.443 0.792847H18.9892C20.604 0.792847 21.9177 2.10661 21.9177 3.72134V8.83985H21.1532V3.72134C21.1532 2.52798 20.182 1.5574 18.9892 1.5574H11.443C10.2497 1.5574 9.27908 2.52798 9.27908 3.72134V8.89756V8.89756Z" fill="#9C64B0"/>
<path fill-rule="evenodd" clip-rule="evenodd" d="M11.443 1.04285C9.96636 1.04285 8.76453 2.24468 8.76453 3.72134V8.64756H9.02908V3.72134C9.02908 2.3899 10.1116 1.3074 11.443 1.3074H18.9892C20.32 1.3074 21.4032 2.38986 21.4032 3.72134V8.58985H21.6677V3.72134C21.6677 2.24468 20.4659 1.04285 18.9892 1.04285H11.443ZM9.27908 8.89756H9.52908V3.72134C9.52908 2.66605 10.3877 1.8074 11.443 1.8074H18.9892C20.044 1.8074 20.9032 2.66609 20.9032 3.72134V9.08985H22.1677V3.72134C22.1677 1.96853 20.742 0.542847 18.9892 0.542847H11.443C9.69022 0.542847 8.26453 1.96853 8.26453 3.72134V9.14756H9.27908V8.89756Z" fill="#9C64B0"/>
<path d="M22.318 26.3587C22.318 26.27 22.2044 26.242 22.2044 26.242C21.0793 26.0335 20.0281 25.2497 19.2325 24.4169C17.933 23.056 16.8396 21.3233 16.417 20.5141C16.2904 20.2224 16.4697 20.192 16.4697 20.192L16.4678 20.1889C18.6616 19.3443 19.0234 17.1525 19.0234 16.5536C19.0234 13.774 16.3934 12.9536 14.0246 12.9536C13.1298 12.9536 12.8307 13.0275 11.8986 13.0275C10.8163 13.0275 10.1641 12.9536 9.99526 12.9536C9.84632 12.9536 9.75261 13.0846 9.75261 13.2329C9.75261 13.905 11.2823 12.7669 11.2823 15.0053V23.9403C11.2823 26.0112 9.82708 25.4328 9.82708 25.9361C9.82708 26.1043 10.0139 26.1595 10.1256 26.1595C10.6661 26.1595 11.2823 26.085 12.1586 26.085C13.2595 26.085 13.5394 26.1595 14.173 26.1595C14.6396 26.1595 14.7141 26.0664 14.7141 25.9361C14.7141 25.3025 12.7556 26.2724 12.7556 23.586V14.1675C12.7556 13.6071 13.1664 13.6071 13.7634 13.6071C15.9087 13.6071 17.6066 14.8011 17.6432 17.0588C17.668 18.5879 16.5237 20.0406 14.621 20.0406C13.9496 20.0406 14.0966 20.0015 13.9477 20.0015C13.8546 20.0015 13.7609 20.0388 13.7609 20.1697C13.7609 20.3397 13.8993 20.4285 14.0613 20.4756C14.2704 20.5662 14.7501 20.6426 15.2515 21.4109H15.2528C16.5243 23.4935 17.9541 26.6156 21.219 26.6156C22.4409 26.615 22.318 26.4685 22.318 26.3587Z" fill="#FFCC00"/>
<path d="M6.54423 13.7921V11.28C6.54423 11.2446 6.57278 11.216 6.60815 11.216H9.12022C9.15559 11.216 9.18414 11.1875 9.18414 11.1521V10.7587C9.18414 10.7233 9.15559 10.6948 9.12022 10.6948H6.08749C6.05212 10.6948 6.02357 10.7233 6.02357 10.7587V13.7914C6.02357 13.8268 6.05212 13.8554 6.08749 13.8554H6.48094C6.51569 13.8554 6.54423 13.8268 6.54423 13.7921Z" fill="#9C64B0"/>
<path fill-rule="evenodd" clip-rule="evenodd" d="M5.77357 10.7587C5.77357 10.5853 5.91401 10.4448 6.08749 10.4448H9.12022C9.29366 10.4448 9.43414 10.5852 9.43414 10.7587V11.1521C9.43414 11.3256 9.29366 11.466 9.12022 11.466H6.79423V13.7921C6.79423 13.9648 6.65379 14.1054 6.48094 14.1054H6.08749C5.91401 14.1054 5.77357 13.9648 5.77357 13.7914V10.7587ZM6.27357 10.9448V13.6054H6.29423V11.28C6.29423 11.1065 6.43471 10.966 6.60815 10.966H8.93414V10.9448H6.27357Z" fill="#9C64B0"/>
<path d="M20.9937 11.216H23.5058C23.5412 11.216 23.5697 11.2446 23.5697 11.28V13.792C23.5697 13.8274 23.5983 13.856 23.6336 13.856H24.0271C24.0625 13.856 24.091 13.8274 24.091 13.792V10.7593C24.091 10.7239 24.0625 10.6954 24.0271 10.6954H20.9943C20.959 10.6954 20.9304 10.7239 20.9304 10.7593V11.1527C20.9298 11.1875 20.9583 11.216 20.9937 11.216Z" fill="#9C64B0"/>
<path fill-rule="evenodd" clip-rule="evenodd" d="M20.6804 10.7593C20.6804 10.5858 20.8209 10.4454 20.9943 10.4454H24.0271C24.2006 10.4454 24.341 10.5859 24.341 10.7593V13.792C24.341 13.9655 24.2006 14.106 24.0271 14.106H23.6336C23.4602 14.106 23.3197 13.9655 23.3197 13.792V11.466H20.9937C20.8238 11.466 20.6789 11.3286 20.6804 11.1513C20.6804 11.1503 20.6804 11.1493 20.6804 11.1483L20.9304 11.1527H20.6804V11.1513V10.7593ZM21.1804 10.9454V10.966H23.5058C23.6792 10.966 23.8197 11.1065 23.8197 11.28V13.606H23.841V10.9454H21.1804Z" fill="#9C64B0"/>
<path d="M23.5691 25.2857V27.7978C23.5691 27.8332 23.5405 27.8617 23.5052 27.8617H20.9931C20.9577 27.8617 20.9292 27.8903 20.9292 27.9256V28.3191C20.9292 28.3545 20.9577 28.383 20.9931 28.383H24.0258C24.0612 28.383 24.0898 28.3545 24.0898 28.3191V25.2857C24.0898 25.2504 24.0612 25.2218 24.0258 25.2218H23.6324C23.5976 25.2218 23.5691 25.2504 23.5691 25.2857Z" fill="#9C64B0"/>
<path fill-rule="evenodd" clip-rule="evenodd" d="M23.3191 25.2857C23.3191 25.1139 23.458 24.9718 23.6324 24.9718H24.0258C24.1993 24.9718 24.3398 25.1123 24.3398 25.2857V28.3191C24.3398 28.4926 24.1993 28.633 24.0258 28.633H20.9931C20.8197 28.633 20.6792 28.4926 20.6792 28.3191V27.9256C20.6792 27.7522 20.8197 27.6117 20.9931 27.6117H23.3191V25.2857ZM23.8191 25.4718V27.7978C23.8191 27.9713 23.6786 28.1117 23.5052 28.1117H21.1792V28.133H23.8398V25.4718H23.8191Z" fill="#9C64B0"/>
<path d="M9.11962 27.8611H6.60752C6.57215 27.8611 6.54361 27.8326 6.54361 27.7972V25.2857C6.54361 25.2504 6.51506 25.2218 6.47969 25.2218H6.08624C6.05087 25.2218 6.02232 25.2504 6.02232 25.2857V28.3185C6.02232 28.3539 6.05087 28.3824 6.08624 28.3824H9.119C9.15438 28.3824 9.18292 28.3539 9.18292 28.3185V27.925C9.18354 27.8897 9.15499 27.8611 9.11962 27.8611Z" fill="#9C64B0"/>
<path fill-rule="evenodd" clip-rule="evenodd" d="M5.77232 25.2857C5.77232 25.1123 5.9128 24.9718 6.08624 24.9718H6.47969C6.65313 24.9718 6.79361 25.1123 6.79361 25.2857V27.6111H9.11962C9.29123 27.6111 9.43438 27.7501 9.43292 27.9264C9.43291 27.9274 9.4329 27.9284 9.43288 27.9294L9.18292 27.925H9.43292V27.9264V28.3185C9.43292 28.4919 9.29248 28.6324 9.119 28.6324H6.08624C5.9128 28.6324 5.77232 28.4919 5.77232 28.3185V25.2857ZM6.27232 25.4718V28.1324H8.93292V28.1111H6.60752C6.43404 28.1111 6.29361 27.9706 6.29361 27.7972V25.4718H6.27232Z" fill="#9C64B0"/>
</svg>
